PathFileType	4	(X/Y/Z)	C:\Users\Basilio\Documents\Thesis Gigler\squatting_fais\c3dfiles\077\SLS_front_pre3\markers_experimental.trc
DataRate	CameraRate	NumFrames	NumMarkers	Units	OrigDataRate	OrigDataStartFrame	OrigNumFrames
200.000000	200.000000	4	60	mm	200.000000	0	1466
Frame#	Time	FHD			LBHD			RBHD			C7			T10			CLAV			LSHO			LUUPA			LMUPA			LDUPA			LLEP			LMEP			LRAD			LUL			LRFIN			RSHO			RUPA1			RMUPA			RDUPA			RLEP			RMEP			RUL			RUFIN			LASI			RASI			USACR			LSACR			RSACR			LTHI1			LTHI2			LTHI3			LTHI4			LLFC			LMFC			LTIB1			LTIB2			LTIB3			LTIB4			LLMAL			LHEE			LMT1			LMT2			LMT5			RTHI			RTHI2			RTHI3			RTHI4			RLFC			RMFC			RTIB1			RTIB2			RTIB3			RTIB4			RLMAL			RMMAL			RHEE			RMT1			RMT2			RMT5			RRAD			
		X1	Y1	Z1	X2	Y2	Z2	X3	Y3	Z3	X4	Y4	Z4	X5	Y5	Z5	X6	Y6	Z6	X7	Y7	Z7	X8	Y8	Z8	X9	Y9	Z9	X10	Y10	Z10	X11	Y11	Z11	X12	Y12	Z12	X13	Y13	Z13	X14	Y14	Z14	X15	Y15	Z15	X16	Y16	Z16	X17	Y17	Z17	X18	Y18	Z18	X19	Y19	Z19	X20	Y20	Z20	X21	Y21	Z21	X22	Y22	Z22	X23	Y23	Z23	X24	Y24	Z24	X25	Y25	Z25	X26	Y26	Z26	X27	Y27	Z27	X28	Y28	Z28	X29	Y29	Z29	X30	Y30	Z30	X31	Y31	Z31	X32	Y32	Z32	X33	Y33	Z33	X34	Y34	Z34	X35	Y35	Z35	X36	Y36	Z36	X37	Y37	Z37	X38	Y38	Z38	X39	Y39	Z39	X40	Y40	Z40	X41	Y41	Z41	X42	Y42	Z42	X43	Y43	Z43	X44	Y44	Z44	X45	Y45	Z45	X46	Y46	Z46	X47	Y47	Z47	X48	Y48	Z48	X49	Y49	Z49	X50	Y50	Z50	X51	Y51	Z51	X52	Y52	Z52	X53	Y53	Z53	X54	Y54	Z54	X55	Y55	Z55	X56	Y56	Z56	X57	Y57	Z57	X58	Y58	Z58	X59	Y59	Z59	X60	Y60	Z60	

1	0	-333.2735595703126	1844.216796875	-1055.355102539063	-474.642059326172	1741.209106445313	-1130.41064453125	-483.6132202148439	1734.075561523438	-984.463562011719	-521.0191650390626	1587.271728515625	-1071.360595703125	-489.2005310058595	1246.606567382813	-1052.352172851563	-352.1202392578126	1558.603393554688	-1063.041381835938	-374.7073974609376	1586.4853515625	-1239.177124023438	-195.7288208007813	1526.649047851563	-1328.056762695313	-167.9645690917969	1560.324829101563	-1303.219848632813	-127.4496231079102	1524.021850585938	-1330.41796875	-63.17726516723634	1534.303344726563	-1323.865600585938	-60.43622970581056	1466.041137695313	-1290.128784179688	223.5976715087891	1559.877685546875	-1190.590942382813	230.1762084960938	1570.453125	-1269.559204101563	318.2052001953126	1590.790161132813	-1192.274169921875	-374.7602233886719	1589.404418945313	-897.1138916015627	-216.5587768554688	1552.838012695313	-788.4243164062502	-190.1475982666016	1581.075439453125	-820.825622558594	-146.7405548095703	1555.534790039063	-786.2947387695315	-81.37489318847658	1563.705200195313	-795.210388183594	-75.37782287597658	1490.075317382813	-822.3175048828127	213.6088409423829	1602.386962890625	-819.5777587890627	298.4412841796876	1610.896240234375	-900.0721435546877	-265.3160095214844	1070.960693359375	-1172.61767578125	-281.5757446289063	1109.74755859375	-891.6414184570315	-481.3626708984376	1136.530029296875	-1042.144653320313	-480.7565307617189	1104.639526367188	-1069.224609375	-486.4231262207032	1104.001342773438	-1014.185241699219	-336.5934448242188	848.8926391601565	-1205.287963867188	-309.4010925292969	770.2148437500002	-1197.2373046875	-261.0446166992188	771.661804199219	-1198.395751953125	-337.0267333984376	719.9157714843751	-1176.21044921875	-311.7765197753907	572.5284423828126	-1146.070068359375	-284.3393859863282	558.3337402343751	-1013.228393554688	-277.4151000976563	350.7895202636719	-1062.347778320313	-318.1922607421876	303.3131408691407	-1126.039306640625	-282.3595275878907	301.0821838378907	-1094.834106445313	-288.8216247558594	226.6165771484376	-1056.557495117188	-356.2954101562501	106.6061325073242	-1085.66455078125	-406.464324951172	78.7372283935547	-1027.583740234375	-195.586410522461	59.83595657348634	-1013.760620117188	-191.0204010009766	55.74054336547853	-1055.14697265625	-319.0255737304688	126.1798782348633	-1005.903198242188	-171.7491455078125	816.9123535156252	-809.0820312500002	-108.0702362060547	797.6128540039065	-807.2415161132815	-82.26491546630861	819.0081176757815	-813.9282226562502	-81.80600738525392	719.1077880859376	-814.7598876953127	-45.84444808959962	663.3976440429689	-811.1135253906252	-8.266196250915529	659.9080810546876	-936.5905761718752	66.05261993408205	569.5028076171876	-816.0246582031252	47.47349929809571	469.494110107422	-781.661560058594	88.51757049560548	487.0921936035157	-799.1779785156252	117.0026626586914	449.9775695800782	-835.3242187500002	147.0057678222657	261.5223083496094	-785.4849243164065	173.9722442626953	282.3561706542969	-872.4104614257815	118.1817321777344	193.5035705566407	-845.2581176757815	316.9949035644532	300.9165954589844	-816.9010009765627	307.6428833007813	299.5191955566407	-779.7918090820315	298.3653259277344	270.9864807128907	-732.7758178710939	nan	nan	nan	
2	0.005	-333.5510253906251	1844.082641601563	-1055.87890625	-474.8762512207032	1741.087768554688	-1131.068237304688	-484.0122375488282	1733.00830078125	-985.051452636719	-521.2201538085939	1587.118530273438	-1071.963256835938	-489.4290771484376	1246.505737304688	-1052.771728515625	-352.2303161621094	1558.495971679688	-1063.581298828125	-374.8008117675782	1586.3515625	-1239.63232421875	-195.8362579345704	1526.534057617188	-1328.540893554688	-168.0505523681641	1560.17138671875	-1303.696166992188	-127.5485610961914	1523.92529296875	-1330.805419921875	-63.24978637695314	1534.190307617188	-1324.318725585938	-60.54455566406251	1465.9521484375	-1290.43408203125	223.5013885498047	1559.9130859375	-1190.941528320313	230.0711059570313	1570.472534179688	-1269.94677734375	318.0853576660157	1591.06982421875	-1192.547729492188	-375.0278320312501	1589.421020507813	-897.7002563476565	-216.8961639404297	1553.019287109375	-789.077819824219	-190.420166015625	1581.152221679688	-821.5292968750002	-146.9561767578125	1555.640747070313	-786.9724731445315	-81.64863586425783	1563.767578125	-795.6834106445315	-75.65960693359376	1490.0986328125	-822.7554321289065	212.8816986083985	1601.967529296875	-820.5714111328127	298.2176818847657	1610.76123046875	-900.508239746094	-265.5272827148438	1071.207397460938	-1173.022216796875	-281.8902282714844	1109.833862304688	-892.1312255859377	-481.5962219238282	1136.262329101563	-1042.554565429688	-479.4393005371095	1104.564331054688	-1070.416625976563	-485.0258789062501	1104.103637695313	-1015.014221191406	-336.9536132812501	848.9252929687502	-1205.581420898438	-309.6307678222657	770.3356933593752	-1197.787109375	-261.4251403808594	771.6050415039065	-1198.920532226563	-337.2915039062501	719.9230957031251	-1176.444702148438	-311.9542236328126	572.5337524414064	-1146.3583984375	-284.0976562500001	558.3447875976564	-1013.705505371094	-277.3887023925782	350.7739562988282	-1062.789306640625	-318.3628845214844	303.3533020019532	-1126.341064453125	-283.2732543945313	302.1899719238282	-1095.446533203125	-288.8112487792969	226.6516723632813	-1056.944091796875	-356.4698486328126	106.6574249267578	-1085.823608398438	-406.4684448242189	78.78798675537111	-1027.611083984375	-195.5525512695313	59.96962738037111	-1013.904235839844	-191.3047027587891	56.51819229125978	-1055.438110351563	-318.9339599609376	126.2297821044922	-1006.147094726563	-171.1893157958985	817.4297485351565	-809.2369384765627	-107.456771850586	798.3847656250002	-807.4631347656252	-81.74928283691408	819.910339355469	-814.241638183594	-80.81153106689455	720.0565795898439	-815.0960083007815	-44.55165100097657	664.5894775390626	-811.4332275390627	-6.664256095886232	661.3275146484376	-936.8401489257815	68.44695281982423	571.6972045898439	-816.2855224609377	50.98140716552736	471.7296752929689	-781.6594848632815	91.71530914306642	489.5851440429689	-799.0168457031252	120.4904174804688	452.6309509277345	-835.3992919921877	152.4945373535157	264.6046447753907	-785.3848876953127	179.3502349853516	285.6526184082032	-872.3359375000002	124.5155944824219	196.1876220703126	-845.301452636719	321.8941345214844	305.6860656738282	-816.5161743164065	312.6346740722657	304.4456787109376	-779.4636230468752	303.5131835937501	275.7515258789063	-732.3143310546876	nan	nan	nan	
3	0.01	-333.7411193847657	1844.000610351563	-1056.3603515625	-475.162322998047	1741.028442382813	-1131.630859375	-484.2888183593751	1732.870483398438	-985.543395996094	-521.4566650390626	1587.021850585938	-1072.525756835938	-489.6898498535157	1246.415649414063	-1053.213623046875	-352.3057556152344	1558.45556640625	-1064.045776367188	-374.9373474121094	1586.19140625	-1240.269897460938	-196.0319519042969	1526.456787109375	-1329.032348632813	-168.2666931152344	1560.037963867188	-1304.164794921875	-127.6451263427735	1523.795166015625	-1331.162963867188	-63.36616897583009	1534.116333007813	-1324.7041015625	-60.60013961791994	1465.910766601563	-1290.8857421875	223.3908843994141	1559.949340820313	-1191.369262695313	229.9746704101563	1570.472412109375	-1270.33447265625	317.7925720214844	1591.29833984375	-1192.960327148438	-375.3129272460938	1589.466918945313	-898.4050292968752	-217.1496582031251	1553.183227539063	-789.7017211914065	-190.6891326904297	1581.236450195313	-822.1191406250002	-147.2860717773438	1555.82177734375	-787.7019042968752	-81.93154907226564	1563.843994140625	-796.2070922851565	-75.95960235595705	1490.177368164063	-823.1633300781252	212.6124114990235	1601.942749023438	-821.0518798828127	297.9953918457032	1610.659301757813	-901.033386230469	-265.6312866210938	1071.391967773438	-1173.369995117188	-282.1916809082032	1109.949951171875	-892.5334472656252	-481.8463745117189	1136.084228515625	-1042.967041015625	-479.5600585937501	1104.344482421875	-1070.778076171875	-485.1196289062501	1103.869506835938	-1015.411376953125	-337.2246704101563	848.9127197265627	-1205.982666015625	-309.7500000000001	770.424255371094	-1198.267456054688	-261.5441894531251	771.434509277344	-1199.535278320313	-337.4925842285157	719.9529418945314	-1176.737915039063	-312.0887756347657	572.5346679687501	-1146.657592773438	-283.8388366699219	558.4130249023439	-1014.136352539063	-277.3892517089844	350.8312072753907	-1063.215698242188	-318.5763244628907	303.3610229492188	-1126.636840820313	-283.4060974121094	302.2160034179688	-1095.93505859375	-288.7844848632813	226.6947021484376	-1057.277099609375	-356.5639953613282	106.646354675293	-1085.979248046875	-406.4283142089845	78.79176330566408	-1027.6875	-195.5084991455079	60.1328811645508	-1014.014953613281	-191.84326171875	57.69431304931642	-1056.594482421875	-318.8595275878907	126.3104095458985	-1006.393188476563	-170.6325073242188	817.6993408203127	-809.7974243164065	-106.8198394775391	799.2429809570315	-807.6343994140627	-81.28356170654298	820.378845214844	-814.5253906250002	-79.8283157348633	721.0254516601564	-815.3969726562502	-42.93039321899415	665.7060546875001	-811.7166748046877	-5.221409797668458	662.7835693359376	-937.109313964844	70.79199981689455	574.0001831054689	-816.4422607421877	54.26830291748048	473.8933410644532	-781.8091430664065	94.37207031250001	492.3237609863282	-799.2901611328127	123.8110733032227	455.3883361816407	-835.434020996094	157.7408447265625	267.5838623046876	-785.3611450195315	184.5101470947266	288.9624328613282	-872.0660400390627	130.5224914550782	198.9419555664063	-845.1545410156252	326.7676391601563	310.6122741699219	-816.2348632812502	317.4539794921876	309.2260437011719	-779.2176513671877	308.5169982910157	280.4889831542969	-732.1016845703126	nan	nan	nan	
4	0.015	-334.0904235839844	1844.1240234375	-1056.947387695313	-475.4389953613282	1740.867065429688	-1132.262451171875	-484.531463623047	1732.691284179688	-986.1617431640627	-521.5814819335939	1586.959716796875	-1073.217529296875	-489.919158935547	1246.352905273438	-1053.684936523438	-352.5377807617188	1558.403076171875	-1064.57275390625	-375.0660705566407	1586.018920898438	-1240.864013671875	-196.1676940917969	1526.329956054688	-1329.4150390625	-168.4037475585938	1559.9326171875	-1304.582763671875	-127.6856918334961	1523.7509765625	-1331.641845703125	-63.45541000366212	1534.02490234375	-1325.100219726563	-60.71653747558595	1465.806030273438	-1291.194580078125	223.2649688720704	1559.979125976563	-1191.767578125	229.8954467773438	1570.4462890625	-1270.743286132813	317.5365600585938	1591.63232421875	-1193.418090820313	-375.5526428222657	1589.486938476563	-898.952819824219	-217.4126434326172	1553.409057617188	-790.258728027344	-190.949951171875	1581.330078125	-822.808776855469	-147.5492095947266	1556.005859375	-788.255310058594	-82.19250488281251	1563.897583007813	-797.5161132812502	-76.15530395507814	1490.175537109375	-823.5592041015627	212.8840637207032	1602.364624023438	-821.0305786132815	297.8577880859376	1610.491088867188	-901.6094360351565	-265.8575134277344	1071.516845703125	-1173.784301757813	-282.4551696777344	1110.02392578125	-892.9190063476565	-481.9672241210939	1135.887817382813	-1043.361206054688	-479.7295532226564	1104.159057617188	-1071.17138671875	-485.3037109375001	1103.674560546875	-1015.7509765625	-337.5305175781251	848.9968872070315	-1206.306884765625	-309.9064636230469	770.5635375976565	-1198.714233398438	-263.0473022460938	771.8291015625002	-1200.494018554688	-337.6878967285157	719.9507446289064	-1177.057373046875	-312.1352233886719	572.5361938476564	-1146.957275390625	-283.5243225097657	558.4195556640626	-1014.546752929688	-277.3582153320313	350.8343505859376	-1063.626586914063	-318.7500305175782	303.3909606933594	-1126.934692382813	-283.5127258300782	302.2194213867188	-1096.362670898438	-288.7774353027344	226.7256469726563	-1057.601928710938	-356.6591796875001	106.6725616455078	-1086.085815429688	-406.4467773437501	78.84051513671876	-1027.73779296875	-195.5368194580079	60.26834869384767	-1014.17431640625	-191.8023681640625	57.7349090576172	-1056.822143554688	-318.7643127441407	126.3821563720703	-1006.662414550781	-170.0704345703125	818.2755126953127	-810.036315917969	-106.2079772949219	799.9864501953127	-807.9741821289065	-80.66183471679689	821.2916259765627	-814.5505371093752	-78.77341461181642	721.9736328125001	-815.652526855469	-41.49472045898438	666.9920043945314	-812.0056762695315	-3.587803840637208	664.4530639648439	-937.595642089844	73.15878295898439	576.2224121093751	-816.7109375000002	57.56336212158205	476.1553955078126	-781.9056396484377	97.94734954833987	494.5526428222657	-799.4790649414065	127.3505096435547	458.1344299316407	-835.5752563476565	162.8252868652344	270.7349853515626	-785.1746826171877	187.9282836914063	292.7929077148438	-872.5697021484377	136.3772888183594	201.6644897460938	-845.068786621094	331.4747619628907	315.2270507812501	-815.8748779296877	322.1438598632813	313.9383239746094	-779.0427246093752	313.3817749023438	285.0822753906251	-731.6592407226564	202.1593170166016	1588.369750976563	-900.3701171875002	
